<svg xmlns="http://www.w3.org/2000/svg" width="192.222" height="134.173"><defs><clipPath id="a"><path d="M0-5.149h192.222v-134.173H0Z" style="fill:none" transform="translate(0 139.322)"/></clipPath><style>.c{clip-path:url(#a)}.d{fill:#0f2b92}.e{fill:#ffac2d}.f{fill:#ff611e}</style></defs><g style="isolation:isolate"><g class="c"><path d="M81.3 52.836a9.613 9.613 0 0 0 9.681-9.616 9.668 9.668 0 0 0-9.681-9.681 9.613 9.613 0 0 0-9.616 9.681 9.558 9.558 0 0 0 9.616 9.616M108.781 90.437a9.7 9.7 0 0 0-8.906 5.937h17.748a9.777 9.777 0 0 0-8.842-5.937M160.026 109.798a9.613 9.613 0 0 0 9.681-9.616 9.668 9.668 0 0 0-9.681-9.681 9.668 9.668 0 0 0-9.681 9.681 9.613 9.613 0 0 0 9.681 9.616M173.203 38.073a5.064 5.064 0 0 0-5.066 5.1 5.035 5.035 0 0 0 5.066 5.065 5.063 5.063 0 0 0 5.094-5.065 5.092 5.092 0 0 0-5.094-5.1" class="d"/><path d="M130.072 24.376a8.239 8.239 0 0 0-.54-2.942 14.61 14.61 0 0 0 1.637-6.738 14.712 14.712 0 0 0-14.7-14.7 14.711 14.711 0 0 0-14.134 10.746c-.192-.013-.382-.029-.578-.029H90.98a8.238 8.238 0 0 0-7.023 3.927q-1.313-.12-2.657-.119a28.421 28.421 0 0 0-16.2 5.051 8.209 8.209 0 0 0-1.284-.98l-9.293-5.744a8.2 8.2 0 0 0-4.325-1.237 8.238 8.238 0 0 0-7.018 3.907l-9.316 15.069-9.319-15.065a8.235 8.235 0 0 0-7.017-3.907 8.2 8.2 0 0 0-4.325 1.233L3.91 18.592a8.243 8.243 0 0 0-3.69 5.119 8.242 8.242 0 0 0 1.012 6.227l25.453 41.161-7.232 3.231a8.241 8.241 0 0 0-4.189 10.836l18.329 41.755a8.242 8.242 0 0 0 7.546 4.93 8.241 8.241 0 0 0 7.545-4.937l5.88-13.414 5.874 13.414a8.243 8.243 0 0 0 7.546 4.936 8.242 8.242 0 0 0 7.546-4.93l5.764-13.129a28.682 28.682 0 0 0 27.417 20.382h1.613a8.241 8.241 0 0 0 8.242-8.242v-10.537h5.3a8.2 8.2 0 0 0 2.363 5.047l7.486 7.55a8.244 8.244 0 0 0 5.835 2.438h.014a8.242 8.242 0 0 0 5.828-2.413l2.083-2.084a28.676 28.676 0 1 0 12.547-54.45q-.724 0-1.439.035v-3.668c0-.044-.006-.088-.007-.131a8.208 8.208 0 0 0 7.751-6.851 18.879 18.879 0 0 0 6.62 1.289 8.208 8.208 0 0 0 5.352 1.974h5.677a8.242 8.242 0 0 0 8.242-8.242V30.39a8.241 8.241 0 0 0-8.242-8.242h-5.674a8.211 8.211 0 0 0-5.392 2.008 18.836 18.836 0 0 0-9.476 2.719 8.2 8.2 0 0 0-5.227-1.872h-5.677a8.2 8.2 0 0 0-4.083 1.081l-3.75-4.524a8.241 8.241 0 0 0-14.586 5.26Zm8.28 2.444 14.178 17.1V33.245h4.489a18.954 18.954 0 0 0 1.188 21.55v4.7L144.03 42.39v10.677h-5.678ZM121.831 62h-10.778V24.376h10.777Zm-5.357-53.758a6.43 6.43 0 0 1 6.453 6.453 6.473 6.473 0 0 1-6.453 6.454 6.432 6.432 0 0 1-6.453-6.454 6.391 6.391 0 0 1 6.453-6.453M90.98 25.279v-6.324h10.777v48.4H90.98v-6.259a19.309 19.309 0 0 1-9.681 2.515A20.354 20.354 0 0 1 60.906 43.22a20.565 20.565 0 0 1 .731-5.431l4.856-7.854a8.193 8.193 0 0 0 .734-1.524 20.277 20.277 0 0 1 14.072-5.649 19.308 19.308 0 0 1 9.681 2.517m-73.446-5.421 16.328 26.4 16.326-26.4 8.78 5.427a28.673 28.673 0 0 0-4.904 9.074l-20.2 32.674L8.241 25.602Zm50.455 103.753L54.564 92.954l-13.422 30.657-18.328-41.757 9.681-4.324 8.648 19.748 13.421-30.655 13.423 30.655 8.648-19.748 9.681 4.324-.453 1.03a28.5 28.5 0 0 0-5.316 12.109Zm31.24-16.456a9.741 9.741 0 0 0 9.487 8.066h1.613v10.71h-1.613a20.354 20.354 0 0 1-20.393-20.393v-5.421a20.678 20.678 0 0 1 .19-2.759l4.521-10.3a20.336 20.336 0 0 1 15.683-7.335 20.409 20.409 0 0 1 20.457 20.394v5.772l-1.262 1.263Zm60.8-27.428a20.426 20.426 0 1 1-13.62 35.621l-6.845 6.84-7.328-7.39a8.256 8.256 0 0 0 4.768-5.087l2.56-2.559v-39.3h10.781v14.389a19.311 19.311 0 0 1 9.681-2.517m23.953-23.836h-5.677v-3.3a10.164 10.164 0 0 1-5.1 1.326 10.7 10.7 0 0 1-6.753-2.383V34.792a10.671 10.671 0 0 1 6.753-2.4 10.174 10.174 0 0 1 5.1 1.326V30.39h5.677Z" class="d"/></g><path d="m33.863 46.253 16.327-26.4 9.293 5.744-25.62 41.437L8.246 25.602l9.293-5.744Z" class="e"/><g class="c"><path d="M101.757 18.954v48.4H90.98v-6.26a19.308 19.308 0 0 1-9.681 2.516 20.353 20.353 0 0 1-20.393-20.39 20.409 20.409 0 0 1 20.393-20.458 19.308 19.308 0 0 1 9.681 2.516v-6.324ZM71.683 43.22a9.557 9.557 0 0 0 9.616 9.615 9.612 9.612 0 0 0 9.681-9.615 9.668 9.668 0 0 0-9.681-9.681 9.613 9.613 0 0 0-9.616 9.681M116.474 21.144a6.431 6.431 0 0 1-6.452-6.449 6.391 6.391 0 0 1 6.452-6.451 6.43 6.43 0 0 1 6.454 6.451 6.472 6.472 0 0 1-6.454 6.449M121.831 62h-10.778V24.376h10.778Z" class="e"/></g><path d="m41.146 97.278 13.42-30.655 13.423 30.655 8.648-19.748 9.681 4.324-18.329 41.754-13.423-30.654-13.42 30.654-18.332-41.754 9.681-4.324Z" class="e"/><g class="c"><path d="M108.716 115.218h1.614v10.713h-1.614a20.354 20.354 0 0 1-20.393-20.394v-5.421a20.354 20.354 0 0 1 20.393-20.393 20.409 20.409 0 0 1 20.458 20.393v7.035H99.229a9.741 9.741 0 0 0 9.487 8.067m.065-24.782a9.7 9.7 0 0 0-8.906 5.938h17.748a9.777 9.777 0 0 0-8.842-5.938M160.026 79.723a20.409 20.409 0 0 1 20.458 20.394 20.464 20.464 0 0 1-20.458 20.462 20.293 20.293 0 0 1-13.618-5.232l-6.84 6.84-7.486-7.55 7.486-7.487v-39.3h10.777v14.391a19.3 19.3 0 0 1 9.681-2.518m-9.681 20.456a9.613 9.613 0 0 0 9.681 9.616 9.613 9.613 0 0 0 9.68-9.616 9.668 9.668 0 0 0-9.681-9.681 9.668 9.668 0 0 0-9.68 9.681" class="e"/></g><path d="m158.207 59.491-14.177-17.1v10.675h-5.678V26.819l14.178 17.1V33.245h5.677Z" class="f"/><g class="c"><path d="M183.98 30.389v25.5h-5.674v-3.3a10.172 10.172 0 0 1-5.1 1.325 10.722 10.722 0 0 1-10.747-10.742 10.752 10.752 0 0 1 10.747-10.777 10.163 10.163 0 0 1 5.1 1.326v-3.332Zm-15.843 12.783a5.035 5.035 0 0 0 5.069 5.066 5.064 5.064 0 0 0 5.1-5.066 5.093 5.093 0 0 0-5.1-5.1 5.065 5.065 0 0 0-5.066 5.1" class="f"/></g></g></svg>