<svg xmlns="http://www.w3.org/2000/svg" xml:space="preserve" width="800" height="800" fill="#fff" viewBox="0 0 512 512"><path d="M311.91 391.637a8.508 8.508 0 0 0 3.814.896 8.525 8.525 0 0 0 7.637-4.71l34.133-68.267a8.531 8.531 0 0 0 0-7.637l-34.133-68.267a8.526 8.526 0 0 0-11.452-3.814c-4.216 2.108-5.922 7.228-3.814 11.452l32.222 64.444-32.222 64.452c-2.107 4.215-.4 9.344 3.815 11.451z"/><path d="M469.333 119.467H384c-14.123 0-25.6-11.477-25.6-25.6V51.2a8.536 8.536 0 0 0-8.533-8.533 8.53 8.53 0 0 0-8.533 8.533v42.667c0 23.526 19.14 42.667 42.667 42.667h76.8v332.8c0 14.123-11.486 25.6-25.6 25.6H76.8c-14.123 0-25.6-11.477-25.6-25.6V42.667c0-14.114 11.477-25.6 25.6-25.6h269.525L429.158 99.9a8.534 8.534 0 0 0 12.075 0c3.328-3.328 3.328-8.73 0-12.066L355.9 2.5a8.56 8.56 0 0 0-6.033-2.5H76.8C53.274 0 34.133 19.14 34.133 42.667v426.667C34.133 492.86 53.274 512 76.8 512h358.4c23.518 0 42.667-19.14 42.667-42.667V128c0-4.71-3.823-8.533-8.534-8.533z"/><path d="m273.963 260.719-51.2 102.4c-2.108 4.215-.401 9.344 3.814 11.452a8.508 8.508 0 0 0 3.814.896 8.525 8.525 0 0 0 7.637-4.71l51.2-102.4c2.108-4.224.401-9.344-3.814-11.452-4.232-2.108-9.344-.402-11.451 3.814zm-73.882-20.881a8.524 8.524 0 0 0-11.452 3.814l-34.133 68.267a8.531 8.531 0 0 0 0 7.637l34.133 68.267c1.493 2.987 4.506 4.71 7.646 4.71a8.503 8.503 0 0 0 3.806-.896c4.215-2.108 5.922-7.236 3.814-11.452l-32.222-64.452 32.222-64.444c2.108-4.223.402-9.343-3.814-11.451z"/></svg>