<svg xmlns="http://www.w3.org/2000/svg" width="800" height="800" fill="#fff" viewBox="0 0 256 256"><path d="M224 68h-69.333a4.024 4.024 0 0 1-2.4-.8l-27.734-20.8a12.077 12.077 0 0 0-7.2-2.4H72a12.014 12.014 0 0 0-12 12v20H40a12.014 12.014 0 0 0-12 12v112a12.014 12.014 0 0 0 12 12h152.889A11.124 11.124 0 0 0 204 200.889V180h20.889A11.124 11.124 0 0 0 236 168.889V80a12.014 12.014 0 0 0-12-12Zm-28 132.889a3.115 3.115 0 0 1-3.111 3.111H40a4.005 4.005 0 0 1-4-4V88a4.005 4.005 0 0 1 4-4h45.334a4.024 4.024 0 0 1 2.4.8l27.733 20.8a12.077 12.077 0 0 0 7.2 2.4H192a4.005 4.005 0 0 1 4 4Zm32-32a3.115 3.115 0 0 1-3.111 3.111H204v-60a12.014 12.014 0 0 0-12-12h-69.334a4.024 4.024 0 0 1-2.4-.8L92.534 78.4a12.077 12.077 0 0 0-7.2-2.4H68V56a4.005 4.005 0 0 1 4-4h45.334a4.024 4.024 0 0 1 2.4.8l27.733 20.8a12.077 12.077 0 0 0 7.2 2.4H224a4.005 4.005 0 0 1 4 4Z"/></svg>