<svg xmlns="http://www.w3.org/2000/svg" xml:space="preserve" viewBox="0 0 512 512"><path d="M10.449 167.34h141.343v176.253H10.449z" style="fill:#ff1a1a"/><path d="M208.603 167.34H501.54v176.253H208.603zM10.449 392.411h292.937v91.899H10.449zM355.077 392.411h146.474v91.899H355.077z" style="fill:#10bafc"/><path d="M10.449 27.69h491.102v91.899H10.449zM253.127 215.259h203.912v28.718H253.127zM253.127 266.961h203.912v28.719H253.127zM126.805 230.079l-20.312-20.305-25.374 25.383-25.383-25.383-20.304 20.312 25.383 25.373-25.383 25.375 20.304 20.318 25.383-25.388 25.383 25.388 20.304-20.312-25.381-25.382 25.38-25.379z" style="fill:#fff"/><path d="M10.449 354.042h141.339c5.771 0 10.449-4.678 10.449-10.449V167.335c0-5.771-4.678-10.449-10.449-10.449H10.449C4.678 156.886 0 161.564 0 167.335v176.258c0 5.771 4.678 10.449 10.449 10.449zm10.449-176.258h120.441v155.36H20.898v-155.36zM501.549 354.042c5.771 0 10.449-4.678 10.449-10.449V167.335c0-5.771-4.678-10.449-10.449-10.449h-292.94c-5.771 0-10.449 4.678-10.449 10.449v176.258c0 5.771 4.678 10.449 10.449 10.449h292.94zM219.058 177.784h272.043v155.36H219.058v-155.36zM303.384 381.963H10.449C4.678 381.963 0 386.641 0 392.412v91.898c0 5.771 4.678 10.449 10.449 10.449h292.935c5.771 0 10.449-4.678 10.449-10.449v-91.898c0-5.77-4.678-10.449-10.449-10.449zm-10.449 91.898H20.898v-71h272.037v71zM501.551 381.963H355.08c-5.771 0-10.449 4.678-10.449 10.449v91.898c0 5.771 4.678 10.449 10.449 10.449h146.471c5.771 0 10.449-4.678 10.449-10.449v-91.898c0-5.77-4.678-10.449-10.449-10.449zm-10.449 91.898H365.529v-71h125.573v71zM501.551 17.241H10.449C4.678 17.241 0 21.919 0 27.69v91.897c0 5.771 4.678 10.449 10.449 10.449h491.102c5.771 0 10.449-4.678 10.449-10.449V27.69c0-5.771-4.678-10.449-10.449-10.449zm-10.449 91.896H20.898V38.139h470.204v70.998z"/><path d="M457.034 204.816H253.125c-5.771 0-10.449 4.678-10.449 10.449v28.718c0 5.771 4.678 10.449 10.449 10.449h203.909c5.771 0 10.449-4.678 10.449-10.449v-28.718c0-5.771-4.678-10.449-10.449-10.449zm-10.449 28.718H263.574v-7.82h183.011v7.82zM457.034 256.51H253.125c-5.771 0-10.449 4.678-10.449 10.449v28.719c0 5.771 4.678 10.449 10.449 10.449h203.909c5.771 0 10.449-4.678 10.449-10.449v-28.719c0-5.771-4.678-10.449-10.449-10.449zm-10.449 28.719H263.574v-7.821h183.011v7.821zM137.254 230.078c0-2.771-1.101-5.429-3.062-7.388l-20.312-20.306c-4.08-4.079-10.697-4.078-14.777.002l-17.986 17.991-17.993-17.993a10.451 10.451 0 0 0-14.778.001l-20.304 20.312c-4.08 4.081-4.078 10.698.002 14.777l17.99 17.984-17.99 17.985c-4.08 4.079-4.082 10.694-.003 14.776l20.304 20.318a10.449 10.449 0 0 0 7.39 3.063h.001a10.45 10.45 0 0 0 7.39-3.062l17.993-17.997 17.993 17.997a10.448 10.448 0 0 0 14.78 0l20.304-20.312c4.079-4.08 4.078-10.696-.001-14.776l-17.992-17.993 17.992-17.992a10.445 10.445 0 0 0 3.059-7.387zM106.5 286.374l-17.993-17.997a10.448 10.448 0 0 0-14.78 0l-17.992 17.995-5.531-5.534 17.994-17.989a10.45 10.45 0 0 0 0-14.78l-17.993-17.986 5.53-5.531 17.993 17.992a10.451 10.451 0 0 0 14.778-.001l17.987-17.992 5.531 5.53-17.99 17.99c-4.08 4.08-4.081 10.697 0 14.777l17.994 17.995-5.528 5.531zM42.485 94.302h117.029c5.771 0 10.449-4.678 10.449-10.449s-4.678-10.449-10.449-10.449H42.485c-5.771 0-10.449 4.678-10.449 10.449s4.678 10.449 10.449 10.449zM191.002 94.302h23.714c5.771 0 10.449-4.678 10.449-10.449s-4.678-10.449-10.449-10.449h-23.714c-5.771 0-10.449 4.678-10.449 10.449s4.678 10.449 10.449 10.449z"/></svg>