<svg xmlns="http://www.w3.org/2000/svg" width="800" height="800" fill="none" viewBox="10 10 45 45"><path fill="#2A2941" fill-rule="evenodd" d="m15.812 24 17.035-7.203 12.017 28.36-17.11 7.329L15.812 24Z" clip-rule="evenodd"/><path fill="#fff" fill-rule="evenodd" d="m18.02 19.798 17.06-7.202L47.047 40.93l-17.11 7.328-11.918-28.46Z" clip-rule="evenodd"/><path fill="#4C5EFD" fill-rule="evenodd" d="M22.912 18.248s1.38 1.5 2.258 1.425a14.623 14.623 0 0 0 5.193-2.175c.677-.55.552-2.552.552-2.552l-8.003 3.302Z" clip-rule="evenodd"/><path fill="#2A2941" fill-rule="evenodd" d="m31.417 14.096-9.484 3.952.552.6c.452.475.954.9 1.53 1.25.352.25.803.35 1.23.326 1.957-.4 3.838-1.15 5.494-2.251.326-.3.527-.7.602-1.126a8.21 8.21 0 0 0 .15-1.926l-.074-.825Zm-8.505 4.152s1.38 1.5 2.258 1.425a14.623 14.623 0 0 0 5.193-2.175c.677-.55.552-2.552.552-2.552l-8.003 3.302Z" clip-rule="evenodd"/><path fill="#2A2941" fill-rule="evenodd" d="m35.506 11.545-18.515 7.878L29.51 49.335l18.565-7.953-12.569-29.837Zm-16.458 8.679 15.63-6.578 11.34 26.885-15.63 6.753-11.29-27.01-.05-.05Z" clip-rule="evenodd"/><path fill="#2A2941" fill-rule="evenodd" d="m39.395 39.456-6.122 2.55-1.129-2.925 9.483-4.077-.426-.975-10.437 4.502 1.957 4.851 7.1-2.95-.426-.976Z" clip-rule="evenodd"/><path fill="#A694FE" fill-rule="evenodd" d="m40.75 32.028 2.91-1.25 2.483 1.725-1.956 3.377-3.839-.876.401-2.976Z" clip-rule="evenodd"/><path fill="#2A2941" fill-rule="evenodd" d="m43.735 30.052-3.563 1.526-.577 3.876 4.893 1.126 2.483-4.277-3.236-2.25Zm-2.383 2.426 2.258-.95 1.655 1.175-1.43 2.426-2.81-.65.327-2Z" clip-rule="evenodd"/><path fill="#FEC34E" fill-rule="evenodd" d="m38.416 38.33 2.409-1.05 2.082 1.45-1.63 2.802-3.237-.75.376-2.452Z" clip-rule="evenodd"/><path fill="#2A2941" fill-rule="evenodd" d="m40.9 36.555-3.086 1.325-.502 3.377 4.265 1 2.158-3.727-2.835-1.975Zm-1.907 2.25 1.782-.775 1.279.9-1.129 1.901-2.183-.5.251-1.526ZM32.12 30.978l1.956-.75 1.58 1.225-1.38 2.176-2.583-.7.426-1.951Z" clip-rule="evenodd"/><path stroke="#2A2941" stroke-linecap="square" stroke-miterlimit="10" stroke-width="1.859" d="m26.575 18.148 1.605-.676"/><path fill="#2A2941" d="m25.47 26.45-1.128-2.75c-.1-.175-.1-.4-.05-.6a.543.543 0 0 1 .125-.2c.05-.05.125-.1.2-.126.076-.025.151-.05.252-.05.075 0 .175.025.25.05.176.1.302.275.377.45l1.129 2.827c.1.275.25.525.451.75.15.175.352.3.577.35.301.025.577 0 .853-.125.176-.05.352-.15.502-.3.15-.125.251-.3.326-.475.076-.425.025-.85-.175-1.226l-1.13-2.826a.83.83 0 0 1-.075-.6c.026-.075.076-.15.126-.225.05-.05.125-.1.226-.125a.742.742 0 0 1 .25-.05.89.89 0 0 1 .251.05c.176.1.327.275.377.45l1.129 2.751c.15.35.276.75.326 1.125.025.35-.025.676-.176 1a2.235 2.235 0 0 1-.552.726c-.276.225-.577.4-.903.55a4.75 4.75 0 0 1-1.204.325c-.326.025-.652 0-.978-.125a1.895 1.895 0 0 1-.753-.575 4.383 4.383 0 0 1-.602-1.05v.025ZM31.893 25.3l.502-2.4-1.806-1.226c-.15-.1-.276-.2-.402-.325l-.226-.3a.462.462 0 0 1-.05-.175c0-.05.025-.125.05-.175a.637.637 0 0 1 .302-.276.734.734 0 0 1 .225-.05c.076 0 .15.025.226.05.2.1.402.226.602.376l1.455 1.025.326-1.776.076-.375c0-.1.025-.2.075-.275.025-.075.075-.125.126-.2.05-.05.125-.1.2-.125.076-.025.126-.05.2-.05.076 0 .151.025.202.05.05.025.1.05.15.1.05.05.075.1.1.15.076.275.076.55 0 .825l-.451 2.151 2.007 1.376c.15.075.276.2.401.3.1.075.15.175.201.275.025.1.025.175 0 .275-.025.1-.075.175-.125.275a1.37 1.37 0 0 1-.226.175c-.1.025-.2.025-.326 0-.1 0-.176-.05-.251-.1l-.427-.3-1.68-1.125-.402 2.075-.075.35c0 .076-.025.15-.075.2a.544.544 0 0 1-.126.2c-.075.076-.15.1-.226.15-.075.026-.125.05-.2.05a.474.474 0 0 1-.201-.05.763.763 0 0 1-.176-.124c-.05-.05-.075-.125-.1-.175-.05-.25 0-.55.125-.826Z"/></svg>